<mxfile host="app.diagrams.net" modified="2022-10-30T07:33:33.250Z" agent="5.0 (Windows NT 10.0; Win64; x64) AppleWebKit/537.36 (KHTML, like Gecko) Chrome/106.0.0.0 Safari/537.36" etag="vyY9EEJ9cjnQ7I4AwZQI" version="20.5.1" type="github">
  <diagram id="N8YceiyxnaoCASCBBXYR" name="페이지-1">
    <mxGraphModel dx="1038" dy="571" grid="1" gridSize="10" guides="1" tooltips="1" connect="1" arrows="1" fold="1" page="1" pageScale="1" pageWidth="827" pageHeight="1169" math="0" shadow="0">
      <root>
        <mxCell id="0" />
        <mxCell id="1" parent="0" />
        <mxCell id="yDjFSKNVrX93qsdxlj6S-3" style="edgeStyle=orthogonalEdgeStyle;rounded=0;orthogonalLoop=1;jettySize=auto;html=1;exitX=0.5;exitY=1;exitDx=0;exitDy=0;fontSize=14;strokeWidth=1;strokeColor=#6c8ebf;fillColor=#dae8fc;" parent="1" source="yDjFSKNVrX93qsdxlj6S-1" target="yDjFSKNVrX93qsdxlj6S-2" edge="1">
          <mxGeometry relative="1" as="geometry" />
        </mxCell>
        <mxCell id="yDjFSKNVrX93qsdxlj6S-5" style="edgeStyle=orthogonalEdgeStyle;rounded=0;orthogonalLoop=1;jettySize=auto;html=1;exitX=0.5;exitY=1;exitDx=0;exitDy=0;fontSize=14;fillColor=#fff2cc;strokeColor=#d6b656;" parent="1" source="yDjFSKNVrX93qsdxlj6S-1" target="yDjFSKNVrX93qsdxlj6S-4" edge="1">
          <mxGeometry relative="1" as="geometry" />
        </mxCell>
        <mxCell id="yDjFSKNVrX93qsdxlj6S-7" style="edgeStyle=orthogonalEdgeStyle;rounded=0;orthogonalLoop=1;jettySize=auto;html=1;exitX=0.5;exitY=1;exitDx=0;exitDy=0;fontSize=14;strokeWidth=1;strokeColor=#d6b656;fillColor=#fff2cc;" parent="1" source="yDjFSKNVrX93qsdxlj6S-1" target="yDjFSKNVrX93qsdxlj6S-6" edge="1">
          <mxGeometry relative="1" as="geometry" />
        </mxCell>
        <mxCell id="yDjFSKNVrX93qsdxlj6S-1" value="&lt;span style=&quot;font-size: 17px;&quot;&gt;&lt;font style=&quot;font-size: 17px;&quot;&gt;Smart Farm&lt;/font&gt;&lt;/span&gt;" style="rounded=0;whiteSpace=wrap;html=1;strokeWidth=1;fillColor=#f5f5f5;fontColor=#333333;strokeColor=#666666;fontStyle=1;fontSize=17;" parent="1" vertex="1">
          <mxGeometry x="370" y="40" width="120" height="60" as="geometry" />
        </mxCell>
        <mxCell id="yDjFSKNVrX93qsdxlj6S-9" style="edgeStyle=orthogonalEdgeStyle;rounded=0;orthogonalLoop=1;jettySize=auto;html=1;exitX=0.5;exitY=1;exitDx=0;exitDy=0;fontSize=12;strokeColor=#6c8ebf;strokeWidth=1;fillColor=#dae8fc;" parent="1" source="yDjFSKNVrX93qsdxlj6S-2" target="yDjFSKNVrX93qsdxlj6S-8" edge="1">
          <mxGeometry relative="1" as="geometry" />
        </mxCell>
        <mxCell id="yDjFSKNVrX93qsdxlj6S-21" style="edgeStyle=orthogonalEdgeStyle;rounded=0;orthogonalLoop=1;jettySize=auto;html=1;exitX=0.5;exitY=1;exitDx=0;exitDy=0;fontSize=12;strokeColor=#6c8ebf;strokeWidth=1;fillColor=#dae8fc;" parent="1" source="yDjFSKNVrX93qsdxlj6S-2" target="yDjFSKNVrX93qsdxlj6S-15" edge="1">
          <mxGeometry relative="1" as="geometry" />
        </mxCell>
        <mxCell id="yDjFSKNVrX93qsdxlj6S-23" style="edgeStyle=orthogonalEdgeStyle;rounded=0;orthogonalLoop=1;jettySize=auto;html=1;exitX=0.5;exitY=1;exitDx=0;exitDy=0;entryX=0.5;entryY=0;entryDx=0;entryDy=0;fontSize=12;strokeColor=#6c8ebf;strokeWidth=1;fillColor=#dae8fc;" parent="1" source="yDjFSKNVrX93qsdxlj6S-2" target="yDjFSKNVrX93qsdxlj6S-16" edge="1">
          <mxGeometry relative="1" as="geometry" />
        </mxCell>
        <mxCell id="yDjFSKNVrX93qsdxlj6S-2" value="&lt;span style=&quot;font-size: 12px;&quot;&gt;수동제어&lt;/span&gt;" style="rounded=0;whiteSpace=wrap;html=1;fontSize=14;strokeWidth=1;strokeColor=#6c8ebf;fillColor=#dae8fc;fontStyle=1" parent="1" vertex="1">
          <mxGeometry x="130" y="150" width="120" height="60" as="geometry" />
        </mxCell>
        <mxCell id="yDjFSKNVrX93qsdxlj6S-27" style="edgeStyle=orthogonalEdgeStyle;rounded=0;orthogonalLoop=1;jettySize=auto;html=1;exitX=0.5;exitY=1;exitDx=0;exitDy=0;entryX=0.5;entryY=0;entryDx=0;entryDy=0;fontSize=12;strokeWidth=1;strokeColor=#6c8ebf;fillColor=#dae8fc;" parent="1" source="yDjFSKNVrX93qsdxlj6S-4" target="yDjFSKNVrX93qsdxlj6S-24" edge="1">
          <mxGeometry relative="1" as="geometry">
            <Array as="points">
              <mxPoint x="430" y="360" />
              <mxPoint x="309" y="360" />
            </Array>
          </mxGeometry>
        </mxCell>
        <mxCell id="yDjFSKNVrX93qsdxlj6S-28" style="edgeStyle=orthogonalEdgeStyle;rounded=0;orthogonalLoop=1;jettySize=auto;html=1;exitX=0.5;exitY=1;exitDx=0;exitDy=0;entryX=0.5;entryY=0;entryDx=0;entryDy=0;fontSize=12;strokeWidth=1;strokeColor=#d6b656;fillColor=#fff2cc;" parent="1" source="yDjFSKNVrX93qsdxlj6S-4" target="yDjFSKNVrX93qsdxlj6S-25" edge="1">
          <mxGeometry relative="1" as="geometry" />
        </mxCell>
        <mxCell id="yDjFSKNVrX93qsdxlj6S-29" style="edgeStyle=orthogonalEdgeStyle;rounded=0;orthogonalLoop=1;jettySize=auto;html=1;exitX=0.5;exitY=1;exitDx=0;exitDy=0;fontSize=12;strokeWidth=1;strokeColor=#d6b656;fillColor=#fff2cc;" parent="1" source="yDjFSKNVrX93qsdxlj6S-4" target="yDjFSKNVrX93qsdxlj6S-26" edge="1">
          <mxGeometry relative="1" as="geometry">
            <Array as="points">
              <mxPoint x="430" y="360" />
              <mxPoint x="551" y="360" />
            </Array>
          </mxGeometry>
        </mxCell>
        <mxCell id="yDjFSKNVrX93qsdxlj6S-4" value="&lt;font style=&quot;font-size: 12px;&quot;&gt;자동제어&lt;/font&gt;" style="rounded=0;whiteSpace=wrap;html=1;fontSize=14;strokeWidth=1;fillColor=#fff2cc;strokeColor=#d6b656;fontStyle=1" parent="1" vertex="1">
          <mxGeometry x="370" y="150" width="120" height="60" as="geometry" />
        </mxCell>
        <mxCell id="yDjFSKNVrX93qsdxlj6S-32" style="edgeStyle=orthogonalEdgeStyle;rounded=0;orthogonalLoop=1;jettySize=auto;html=1;exitX=0.5;exitY=1;exitDx=0;exitDy=0;entryX=0.5;entryY=0;entryDx=0;entryDy=0;fontSize=12;strokeWidth=1;strokeColor=#d6b656;fillColor=#fff2cc;" parent="1" source="yDjFSKNVrX93qsdxlj6S-6" target="yDjFSKNVrX93qsdxlj6S-30" edge="1">
          <mxGeometry relative="1" as="geometry" />
        </mxCell>
        <mxCell id="yDjFSKNVrX93qsdxlj6S-33" style="edgeStyle=orthogonalEdgeStyle;rounded=0;orthogonalLoop=1;jettySize=auto;html=1;exitX=0.5;exitY=1;exitDx=0;exitDy=0;fontSize=12;strokeWidth=1;strokeColor=#d6b656;fillColor=#fff2cc;" parent="1" source="yDjFSKNVrX93qsdxlj6S-6" target="yDjFSKNVrX93qsdxlj6S-31" edge="1">
          <mxGeometry relative="1" as="geometry" />
        </mxCell>
        <mxCell id="yDjFSKNVrX93qsdxlj6S-6" value="&lt;font style=&quot;font-size: 12px;&quot;&gt;관찰일지&lt;/font&gt;" style="rounded=0;whiteSpace=wrap;html=1;fontSize=14;" parent="1" vertex="1">
          <mxGeometry x="632" y="150" width="120" height="60" as="geometry" />
        </mxCell>
        <mxCell id="yDjFSKNVrX93qsdxlj6S-8" value="&lt;span style=&quot;font-size: 12px;&quot;&gt;쿨링팬 on/off&lt;/span&gt;" style="rounded=0;whiteSpace=wrap;html=1;fontSize=14;strokeWidth=1;strokeColor=#6c8ebf;fillColor=#dae8fc;fontStyle=1" parent="1" vertex="1">
          <mxGeometry x="18" y="269" width="100" height="50" as="geometry" />
        </mxCell>
        <mxCell id="yDjFSKNVrX93qsdxlj6S-15" value="&lt;span style=&quot;font-size: 12px;&quot;&gt;물펌프 on/off&lt;/span&gt;" style="rounded=0;whiteSpace=wrap;html=1;fontSize=14;strokeWidth=1;strokeColor=#6c8ebf;fillColor=#dae8fc;fontStyle=1" parent="1" vertex="1">
          <mxGeometry x="140" y="269" width="100" height="50" as="geometry" />
        </mxCell>
        <mxCell id="yDjFSKNVrX93qsdxlj6S-16" value="&lt;span style=&quot;font-size: 12px;&quot;&gt;led on/off&lt;/span&gt;" style="rounded=0;whiteSpace=wrap;html=1;fontSize=14;strokeWidth=1;strokeColor=#6c8ebf;fillColor=#dae8fc;fontStyle=1" parent="1" vertex="1">
          <mxGeometry x="260" y="269" width="100" height="50" as="geometry" />
        </mxCell>
        <mxCell id="yDjFSKNVrX93qsdxlj6S-24" value="&lt;font style=&quot;font-size: 12px;&quot;&gt;온습도 센서&lt;br&gt;및 쿨링팬&lt;br&gt;&lt;/font&gt;" style="rounded=0;whiteSpace=wrap;html=1;fontSize=14;strokeWidth=1;strokeColor=#6c8ebf;fillColor=#dae8fc;fontStyle=1" parent="1" vertex="1">
          <mxGeometry x="259" y="410" width="100" height="50" as="geometry" />
        </mxCell>
        <mxCell id="yDjFSKNVrX93qsdxlj6S-25" value="&lt;font style=&quot;font-size: 12px;&quot;&gt;토양습도센서&lt;br&gt;및 물펌프&lt;br&gt;&lt;/font&gt;" style="rounded=0;whiteSpace=wrap;html=1;fontSize=14;" parent="1" vertex="1">
          <mxGeometry x="380" y="410" width="100" height="50" as="geometry" />
        </mxCell>
        <mxCell id="yDjFSKNVrX93qsdxlj6S-26" value="&lt;font style=&quot;font-size: 12px;&quot;&gt;조도센서&lt;br&gt;및 led&lt;br&gt;&lt;/font&gt;" style="rounded=0;whiteSpace=wrap;html=1;fontSize=14;" parent="1" vertex="1">
          <mxGeometry x="501" y="410" width="100" height="50" as="geometry" />
        </mxCell>
        <mxCell id="yDjFSKNVrX93qsdxlj6S-30" value="&lt;span style=&quot;font-size: 12px;&quot;&gt;관찰일지&lt;br&gt;UI&lt;br&gt;&lt;/span&gt;" style="rounded=0;whiteSpace=wrap;html=1;fontSize=14;strokeWidth=1;strokeColor=#d6b656;fillColor=#fff2cc;fontStyle=1" parent="1" vertex="1">
          <mxGeometry x="581.5" y="260" width="100" height="50" as="geometry" />
        </mxCell>
        <mxCell id="yDjFSKNVrX93qsdxlj6S-31" value="&lt;font style=&quot;font-size: 12px;&quot;&gt;관찰일지 DB&lt;br&gt;구축&lt;br&gt;&lt;/font&gt;" style="rounded=0;whiteSpace=wrap;html=1;fontSize=14;strokeWidth=1;strokeColor=#d6b656;fillColor=#fff2cc;fontStyle=1" parent="1" vertex="1">
          <mxGeometry x="702.5" y="260" width="100" height="50" as="geometry" />
        </mxCell>
        <mxCell id="yDjFSKNVrX93qsdxlj6S-36" value="&lt;font style=&quot;font-size: 12px;&quot;&gt;토양습도센서&lt;br&gt;및 물펌프&lt;br&gt;&lt;/font&gt;" style="rounded=0;whiteSpace=wrap;html=1;fontSize=14;strokeWidth=1;strokeColor=#d6b656;fillColor=#fff2cc;fontStyle=1" parent="1" vertex="1">
          <mxGeometry x="380" y="410" width="100" height="50" as="geometry" />
        </mxCell>
        <mxCell id="yDjFSKNVrX93qsdxlj6S-37" value="&lt;font style=&quot;font-size: 12px;&quot;&gt;조도센서&lt;br&gt;및 led&lt;br&gt;&lt;/font&gt;" style="rounded=0;whiteSpace=wrap;html=1;fontSize=14;strokeWidth=1;strokeColor=#d6b656;fillColor=#fff2cc;fontStyle=1" parent="1" vertex="1">
          <mxGeometry x="501" y="410" width="100" height="50" as="geometry" />
        </mxCell>
        <mxCell id="yDjFSKNVrX93qsdxlj6S-38" value="&lt;font style=&quot;font-size: 12px;&quot;&gt;관찰일지&lt;/font&gt;" style="rounded=0;whiteSpace=wrap;html=1;fontSize=14;strokeWidth=1;strokeColor=#d6b656;fillColor=#fff2cc;fontStyle=1" parent="1" vertex="1">
          <mxGeometry x="632" y="150" width="120" height="60" as="geometry" />
        </mxCell>
        <mxCell id="hncpyxUhdiJPbUw6AYab-1" value="" style="rounded=0;whiteSpace=wrap;html=1;fontSize=14;strokeWidth=1;strokeColor=#6c8ebf;fillColor=#dae8fc;fontStyle=1" vertex="1" parent="1">
          <mxGeometry x="40" y="20" width="40" height="20" as="geometry" />
        </mxCell>
        <mxCell id="hncpyxUhdiJPbUw6AYab-2" value="" style="rounded=0;whiteSpace=wrap;html=1;fontSize=14;strokeWidth=1;fillColor=#fff2cc;strokeColor=#d6b656;fontStyle=1" vertex="1" parent="1">
          <mxGeometry x="40" y="50" width="40" height="20" as="geometry" />
        </mxCell>
        <mxCell id="hncpyxUhdiJPbUw6AYab-3" value="중간 발표 이전" style="text;html=1;align=center;verticalAlign=middle;resizable=0;points=[];autosize=1;strokeColor=none;fillColor=none;fontSize=17;" vertex="1" parent="1">
          <mxGeometry x="100" y="15" width="130" height="30" as="geometry" />
        </mxCell>
        <mxCell id="hncpyxUhdiJPbUw6AYab-4" value="중간 발표 이후" style="text;html=1;align=center;verticalAlign=middle;resizable=0;points=[];autosize=1;strokeColor=none;fillColor=none;fontSize=17;" vertex="1" parent="1">
          <mxGeometry x="100" y="45" width="130" height="30" as="geometry" />
        </mxCell>
      </root>
    </mxGraphModel>
  </diagram>
</mxfile>
